HIERARCHY
ROOT Hips
{
  OFFSET -50.6425 87.6914 -62.501
  CHANNELS 6 Xposition Yposition Zposition Zrotation Xrotation Yrotation
  JOINT Spine
  {
    OFFSET 0 10 0
    CHANNELS 3 Zrotation Xrotation Yrotation
    JOINT Neck
    {
      OFFSET 0 30 0
      CHANNELS 3 Zrotation Xrotation Yrotation
      JOINT Head
      {
        OFFSET 0 8 0
        CHANNELS 3 Zrotation Xrotation Yrotation
        End Site
        {
          OFFSET 0 10 0
        }
      }
    }
    JOINT LeftArm
    {
      OFFSET 15 30 0
      CHANNELS 3 Zrotation Xrotation Yrotation
      JOINT LeftForeArm
      {
        OFFSET 25 0 0
        CHANNELS 3 Zrotation Xrotation Yrotation
        JOINT LeftHand
        {
          OFFSET 25 0 0
          CHANNELS 3 Zrotation Xrotation Yrotation
          End Site
          {
            OFFSET 10 0 0
          }
        }
      }
    }
    JOINT RightArm
    {
      OFFSET -15 30 0
      CHANNELS 3 Zrotation Xrotation Yrotation
      JOINT RightForeArm
      {
        OFFSET -25 0 0
        CHANNELS 3 Zrotation Xrotation Yrotation
        JOINT RightHand
        {
          OFFSET -25 0 0
          CHANNELS 3 Zrotation Xrotation Yrotation
          End Site
          {
            OFFSET -10 0 0
          }
        }
      }
    }
  }
  JOINT LeftUpLeg
  {
    OFFSET 10 -10 0
    CHANNELS 3 Zrotation Xrotation Yrotation
    JOINT LeftLeg
    {
      OFFSET 0 -35 0
      CHANNELS 3 Zrotation Xrotation Yrotation
      JOINT LeftToe
      {
        OFFSET 0 -40 0
        CHANNELS 3 Zrotation Xrotation Yrotation
        JOINT LeftToeEnd
        {
          OFFSET 0 0 0
          CHANNELS 3 Zrotation Xrotation Yrotation
          End Site
          {
            OFFSET 0 0 15
          }
        }
      }
    }
  }
  JOINT RightUpLeg
  {
    OFFSET -10 -10 0
    CHANNELS 3 Zrotation Xrotation Yrotation
    JOINT RightLeg
    {
      OFFSET 0 -35 0
      CHANNELS 3 Zrotation Xrotation Yrotation
      JOINT RightToe
      {
        OFFSET 0 -40 0
        CHANNELS 3 Zrotation Xrotation Yrotation
        JOINT RightToeEnd
        {
          OFFSET 0.0307635 -1.40019 0.446182
          CHANNELS 3 Zrotation Xrotation Yrotation
          End Site
          {
            OFFSET 0 0 15
          }
        }
      }
    }
  }
}
MOTION
Frames:	19
Frame Time:	0.0333333
-50.6425 87.6914 -62.501 3.14567 -15.4004 -175.185 4.20398 -13.2028 -2.21226 -7.99844 -22.2923 -2.63568 13.4459 35.1967 -8.24312 -77.5509 62.6263 -14.3731 19.3755 -7.02438 -25.2639 -0.903341 -10.4993 0.549547 94.3428 42.9468 -7.52963 -17.1873 -4.87532 18.4538 2.21013 7.41048 1.45291 -0.138631 -21.1903 -3.24965 -0.0234313 27.1996 1.35279 1.41789 -20.6944 12.7194 -4.96962e-017 -9.93923e-017 1.59028e-015 1.44735 -26.4196 -3.42908 -0.473457 33.904 -6.74898 -1.18152 -19.8001 -17.7875 -1.98785e-016 7.95139e-016 6.36111e-015 
-50.4319 87.7017 -62.6891 2.97791 -15.3935 -175.839 4.26411 -13.1821 -2.02553 -8.12282 -22.2654 -2.61707 13.3697 35.4637 -8.46595 -79.1685 61.8694 -12.6771 19.1302 -6.80989 -24.8226 -0.908727 -10.2514 0.584354 94.3862 43.9345 -7.40726 -17.1938 -4.8107 18.3731 2.21343 8.16549 1.29617 -0.0707682 -21.2146 -3.51386 -0.0430718 27.1499 1.36295 1.28667 -20.6427 12.8741 -2.48481e-017 -1.98785e-016 -1.59028e-015 1.80801 -25.7961 -2.65441 -0.457862 32.9143 -6.61834 -1.23766 -19.7307 -18.1168 -7.95139e-016 3.97569e-016 3.18055e-015 
-50.1592 87.6684 -62.8645 2.92053 -15.8508 -177.217 4.79229 -13.5056 -1.03376 -8.29452 -22.3818 -2.42224 13.1991 35.8299 -8.73382 -80.8873 60.8447 -11.1307 18.8483 -6.57627 -24.3204 -0.93887 -9.85546 0.6343 94.1275 44.4299 -7.08633 -17.2798 -4.8465 18.4905 2.20239 8.07751 1.32392 0.120972 -21.8243 -4.05329 -0.0489383 27.5139 1.43884 1.37194 -20.8064 14.0095 7.45443e-017 -2.98177e-016 -4.77083e-015 2.32319 -25.8741 -1.92854 -0.413283 31.9663 -6.48316 -1.13681 -19.4309 -17.6257 -1.39149e-015 3.97569e-016 3.18055e-015 
-49.8627 87.6352 -62.9931 2.81245 -16.2733 -178.29 4.99058 -14.0205 -0.369808 -8.271 -21.906 -2.2553 13.1059 35.9316 -8.94757 -82.5281 60.0359 -9.36205 18.621 -6.37389 -23.8626 -0.947529 -9.65296 0.680854 94.2267 45.4385 -6.99468 -17.2421 -4.85291 18.4344 2.22605 8.89657 1.26185 0.243276 -22.4517 -4.63473 -0.0578291 27.7887 1.50017 1.35585 -20.8588 14.8171 2.48481e-017 0 1.59028e-015 2.81723 -25.9154 -1.2012 -0.383849 31.0691 -6.41037 -1.12397 -19.1933 -17.7337 -7.95139e-016 7.95139e-016 -0 
-49.6288 87.6495 -63.1565 2.80389 -16.424 -179.033 5.29695 -14.2626 -0.0526853 -8.46019 -21.5618 -2.20679 13.0299 36.0649 -9.13039 -84.1465 59.0895 -7.717 18.3612 -6.15365 -23.3442 -0.959588 -9.34023 0.748857 94.2837 46.1109 -6.93923 -17.3015 -4.87809 18.5003 2.23321 9.4716 1.20018 0.456245 -22.6844 -5.07019 -0.0672209 27.8699 1.54225 1.26893 -20.8669 15.2289 -9.93923e-017 -9.93923e-017 -4.77083e-015 3.33284 -25.3213 -0.496186 -0.353791 29.7648 -6.29132 -1.17424 -18.9341 -17.8578 1.98785e-016 7.95139e-016 6.36111e-015 
-49.3675 87.6137 -63.3332 2.66608 -16.4462 -179.945 5.44734 -14.1133 0.449819 -8.60954 -21.8159 -2.17618 13.1163 36.5398 -9.5747 -85.3599 58.1659 -6.40838 18.1692 -5.9969 -23.0503 -0.973163 -9.17108 0.765156 93.936 46.6208 -6.2852 -17.4012 -4.89663 18.6208 2.19578 9.2714 1.25864 0.462004 -22.7876 -5.75228 -0.0777376 28.0033 1.55259 1.27476 -20.9193 15.9151 -8.69683e-017 0 -0 3.73297 -24.8011 0.308277 -0.320783 28.8561 -6.22086 -1.15354 -18.8592 -18.0396 -1.98785e-016 1.98785e-016 -0 
-49.108 87.5824 -63.4686 2.47251 -16.6193 179.234 5.47798 -14.488 0.858712 -8.45171 -21.2039 -2.08302 12.775 36.5135 -9.78548 -86.7477 57.365 -4.90506 17.8812 -5.75159 -22.4404 -0.959793 -8.94324 0.829393 94.1088 47.6347 -6.36464 -17.3008 -4.85621 18.4347 2.23039 10.3087 1.14429 0.449236 -23.0635 -6.25621 -0.0988505 28.0268 1.58744 1.26355 -20.861 16.3224 -7.45443e-017 0 1.59028e-015 4.02999 -24.4592 0.984321 -0.286624 27.9457 -6.18197 -1.11661 -18.7523 -18.2854 -9.93923e-016 1.98785e-016 3.18055e-015 
-48.8428 87.5281 -63.507 2.58577 -17.1453 178.907 5.65114 -14.8069 1.17683 -8.52788 -21.2719 -2.22209 12.9536 36.685 -10.4035 -87.5625 56.6271 -4.01405 17.5759 -5.52543 -21.9328 -1.02052 -8.58631 0.866309 93.7951 48.0636 -5.81333 -17.5816 -4.97631 18.8552 2.1945 9.29632 1.23766 0.785036 -24.0993 -6.57484 -0.122054 28.4703 1.70813 1.0335 -20.8504 16.2303 -4.96962e-017 0 -0 4.68009 -24.4551 1.93091 -0.2512 26.8777 -6.12996 -1.25657 -18.5302 -19.0401 -1.19271e-015 7.95139e-016 -3.18055e-015 
-48.5707 87.4673 -63.6943 2.36382 -17.2006 177.74 6.0003 -14.8866 1.62315 -8.79539 -20.9439 -2.06917 12.7036 36.8535 -10.4332 -89.182 55.3525 -2.56342 17.3174 -5.30581 -21.4329 -1.12164 -8.37551 0.888213 93.4642 48.9554 -5.63642 -17.5466 -4.98721 18.8207 2.1981 9.70699 1.2493 0.757309 -24.2197 -7.11367 -0.166545 28.6049 1.6094 1.17446 -20.9356 16.882 -6.83322e-017 -9.93923e-017 -0 4.87774 -24.0806 2.31695 -0.19762 26.101 -6.05993 -1.08283 -18.4681 -18.5522 -6.95746e-016 3.97569e-016 6.36111e-015 
-48.3339 87.4007 -63.9112 2.42829 -17.122 176.783 6.5116 -14.9237 2.35346 -8.94568 -20.393 -1.87013 12.6389 36.8247 -10.6155 -90.7253 54.3353 -1.08402 17.1152 -5.11678 -21.0015 -1.12441 -8.28989 0.899303 93.1098 48.7177 -5.30529 -17.949 -5.24639 19.4973 2.12202 7.45896 1.61195 1.0291 -24.3154 -7.31225 -0.173195 29.0036 1.60638 1.17111 -21.1562 17.2326 -7.45443e-017 -4.96962e-017 -3.18055e-015 5.29321 -23.3021 2.77467 -0.128749 25.013 -5.9471 -0.964153 -18.3743 -18.0579 -6.70898e-016 2.98177e-016 3.18055e-015 
-48.0543 87.2654 -63.9724 2.2989 -17.7186 175.705 6.88148 -14.958 2.97521 -9.47345 -21.0711 -2.00458 13.0103 37.3766 -11.2334 -91.6378 52.2929 -0.463409 16.9136 -4.94854 -20.6307 -1.03908 -7.94932 0.973033 92.2132 49.3398 -4.32078 -17.8894 -5.20624 19.3931 2.13331 7.7557 1.55626 1.26744 -25.4552 -7.13814 -0.179728 29.6328 1.70248 1.08552 -21.2624 17.5038 -1.02498e-016 -1.2424e-016 -3.18055e-015 5.6352 -23.7734 3.24413 -0.0860054 24.5432 -5.95396 -0.758311 -18.3014 -17.9244 -7.70291e-016 4.09993e-016 3.18055e-015 
-47.8683 87.1229 -64.1185 2.29831 -17.9955 175.262 7.12821 -14.9911 3.49766 -9.77182 -21.1684 -2.16358 13.1378 37.5277 -11.9746 -92.6272 50.6774 0.339269 16.6885 -4.76318 -20.2379 -1.1181 -7.97076 0.997361 91.9448 49.1844 -4.01234 -17.333 -4.75162 18.2915 2.23204 11.961 0.879185 1.33762 -26.2315 -7.49898 -0.203511 30.2484 1.75922 1.03302 -21.4179 17.5171 -6.36732e-017 -8.69683e-017 -2.38542e-015 6.03513 -23.676 3.98966 -0.0703865 24.024 -5.99471 -0.656427 -18.4334 -18.7188 -3.72721e-016 3.97569e-016 -0 
-47.6678 86.9372 -64.3539 2.21492 -18.5184 173.911 7.63723 -15.6769 4.81928 -10.0209 -19.9269 -2.01459 13.1933 36.6762 -12.4514 -94.159 48.1456 1.87509 16.4761 -4.57098 -19.7828 -1.17764 -7.7554 1.07055 91.8058 48.3266 -4.08422 -17.8453 -5.0133 19.1015 2.16482 9.09343 1.25821 1.50051 -27.1563 -7.6255 -0.219156 31.0898 1.83125 1.15232 -21.8284 18.086 -7.60973e-017 -9.31803e-017 -3.18055e-015 6.5392 -23.9315 5.01537 -0.00992115 23.6136 -5.93729 -0.442275 -18.5296 -18.4246 -5.96354e-016 2.98177e-016 3.18055e-015 
-47.5566 86.788 -64.8312 2.40532 -18.2572 172.924 8.60056 -14.8026 5.79497 -11.3022 -20.8603 -2.30648 13.9562 37.0765 -13.513 -95.3979 44.3283 2.59265 16.3135 -4.40282 -19.5577 -1.13329 -8.1347 1.0951 90.4435 47.6004 -3.39771 -17.4413 -4.87311 18.5889 2.20846 10.7755 1.15941 1.77104 -26.9666 -7.66599 -0.210836 31.7831 1.77419 1.32252 -22.4118 18.4437 -7.37677e-017 -1.05604e-016 -1.59028e-015 7.04297 -22.7421 5.73341 0.0146152 22.6635 -5.90581 -0.236672 -18.731 -19.3187 -3.97569e-016 3.97569e-016 3.18055e-015 
-47.8005 86.6642 -65.0591 2.51578 -18.479 174.312 8.09313 -15.4011 5.13515 -11.3191 -19.759 -2.65185 14.3759 36.3675 -13.9005 -95.5045 41.7049 2.97076 16.1933 -4.22246 -19.1749 -1.33664 -8.63232 1.03134 89.733 45.8765 -3.0362 -17.269 -4.85654 18.4161 2.19308 9.18285 1.40925 1.44603 -27.5798 -7.96986 -0.222613 32.1989 1.86855 1.20827 -22.5152 17.2805 -7.45443e-017 -1.05604e-016 -1.59028e-015 6.78869 -23.1164 5.46394 0.00788593 23.4986 -5.96885 -0.255084 -19.6036 -20.5259 -4.96962e-016 3.97569e-016 3.18055e-015 
-48.0792 86.5143 -65.6071 2.53825 -18.7852 173.078 8.72799 -16.1618 7.29602 -11.3543 -18.2915 -2.40927 14.6516 35.4496 -14.9309 -96.1131 37.7804 4.14012 16.1617 -4.16941 -19.1123 -1.17484 -9.25481 1.14488 88.0725 44.0533 -2.7497 -15.6645 -4.25876 16.178 2.37584 13.9224 1.04552 1.61129 -27.6619 -7.32221 -0.224532 32.842 1.85803 1.6373 -23.2547 17.6654 -7.4156e-017 -9.93923e-017 -7.95139e-016 6.63802 -23.3542 4.94226 0.0276648 23.8437 -6.01663 0.356685 -19.9855 -19.2684 -7.95139e-016 7.95139e-016 6.36111e-015 
-48.4256 86.3163 -66.0217 2.7122 -18.6912 173.951 8.63427 -15.5791 7.08717 -11.8203 -18.971 -2.81 15.2832 35.6604 -15.6466 -96.0831 34.6964 5.10556 16.5579 -4.32833 -20.0036 -1.26277 -9.92125 0.904602 84.5879 40.9889 -0.0938873 -15.2214 -4.28149 15.8461 2.35144 11.8179 1.4276 1.21012 -27.8209 -7.84026 -0.190952 33.6221 1.8938 1.73673 -23.7769 16.9137 -7.4156e-017 -9.62863e-017 -2.38542e-015 6.26465 -23.4514 4.09203 0.00979909 24.9521 -6.0514 0.631751 -21.0472 -19.8229 -6.95746e-016 1.98785e-016 3.18055e-015 
-48.7901 86.0807 -66.4257 2.71128 -18.5015 173.825 8.61062 -15.1379 7.64152 -11.878 -18.2963 -3.01119 15.6348 34.8504 -16.5024 -95.5804 31.0336 6.19952 16.373 -4.21635 -19.7781 -1.20304 -10.518 1.04831 80.8814 38.24 2.36112 -14.3174 -3.86214 14.5603 2.51826 13.3473 0.912835 1.02603 -27.8642 -7.52749 -0.166003 34.6172 1.86084 1.9437 -24.5189 15.8488 -7.44472e-017 -1.02498e-016 -1.19271e-015 5.96308 -23.6479 3.70871 -0.00965985 26.2907 -5.99129 1.03278 -22.0403 -19.3493 -7.95139e-016 0 6.36111e-015 
-49.1646 85.6947 -66.7108 2.34197 -18.3905 173.62 8.45357 -13.6751 7.4232 -12.6771 -19.7586 -3.32272 16.3 35.2534 -16.669 -94.7421 26.7969 6.64804 16.3139 -4.14542 -19.8657 -1.13425 -10.6047 1.04188 75.8397 34.8071 6.2065 -13.8666 -3.84129 14.1803 2.61901 15.8781 0.654175 0.373335 -28.4184 -7.17246 -0.131616 36.1309 1.78944 2.25086 -25.4122 14.7564 -7.51266e-017 -9.93923e-017 -1.98785e-015 5.1882 -25.0121 2.97495 -0.0430847 29.1279 -5.90605 1.67102 -23.4559 -17.9452 -4.96962e-016 3.97569e-016 3.18055e-015 
